<?xml version="1.0" encoding="UTF-8" standalone="no"?>
<svg
   xmlns:dc="http://purl.org/dc/elements/1.1/"
   xmlns:cc="http://creativecommons.org/ns#"
   xmlns:rdf="http://www.w3.org/1999/02/22-rdf-syntax-ns#"
   xmlns:svg="http://www.w3.org/2000/svg"
   xmlns="http://www.w3.org/2000/svg"
   xmlns:sodipodi="http://sodipodi.sourceforge.net/DTD/sodipodi-0.dtd"
   xmlns:inkscape="http://www.inkscape.org/namespaces/inkscape"
   version="1.1"
   id="Layer_1"
   x="0px"
   y="0px"
   width="300"
   height="150"
   viewBox="0 0 300.00002 150"
   enable-background="new 0 0 267.067 387.013"
   xml:space="preserve"
   sodipodi:docname="ceiborg_bcoyngro.svg"
   inkscape:version="1.0 (4035a4fb49, 2020-05-01)"><metadata
   id="metadata23"><rdf:RDF><cc:Work
       rdf:about=""><dc:format>image/svg+xml</dc:format><dc:type
         rdf:resource="http://purl.org/dc/dcmitype/StillImage" /><dc:title></dc:title></cc:Work></rdf:RDF></metadata><defs
   id="defs21"><linearGradient
     id="linearGradient2805"
     spreadMethod="pad"
     gradientTransform="matrix(64.181641,0,0,-64.181641,1057.9268,365.62793)"
     gradientUnits="userSpaceOnUse"
     y2="0"
     x2="1"
     y1="0"
     x1="0"><stop
       id="stop2797"
       offset="0"
       style="stop-opacity:1;stop-color:#54beff" /><stop
       id="stop2799"
       offset="0.00140471"
       style="stop-opacity:1;stop-color:#54beff" /><stop
       id="stop2801"
       offset="0.5"
       style="stop-opacity:1;stop-color:#620094" /><stop
       id="stop2803"
       offset="1"
       style="stop-opacity:1;stop-color:#ff3f7a" /></linearGradient></defs><sodipodi:namedview
   inkscape:document-rotation="0"
   pagecolor="#ffffff"
   bordercolor="#666666"
   borderopacity="1"
   objecttolerance="10"
   gridtolerance="10"
   guidetolerance="10"
   inkscape:pageopacity="0"
   inkscape:pageshadow="2"
   inkscape:window-width="1920"
   inkscape:window-height="1003"
   id="namedview19"
   showgrid="false"
   inkscape:zoom="1.0568121"
   inkscape:cx="210.04877"
   inkscape:cy="117.10454"
   inkscape:window-x="0"
   inkscape:window-y="0"
   inkscape:window-maximized="1"
   inkscape:current-layer="Layer_1" />




<g
   id="g2785"
   transform="matrix(0.74533233,0,0,-0.74533233,-758.97616,346.75242)"><g
     id="g2787"><g
       id="g2793"><g
         id="g2795"><path
           id="path2807"
           style="fill:url(#linearGradient2805);stroke:none"
           d="m 1057.927,405.71 v -32.089 h 0.01 c 0,-8.21 3.127,-16.422 9.395,-22.689 v 0 c 6.267,-6.269 14.481,-9.394 22.692,-9.394 v 0 h 16.045 v -0.075 c 4.085,-0.005 8.168,-1.572 11.289,-4.688 v 0 c 3.1,-3.098 4.656,-7.166 4.682,-11.23 v 0 h 0.071 v 15.993 0.047 31.975 c 0.017,8.236 -3.113,16.47 -9.395,22.751 v 0 c -6.267,6.272 -14.482,9.399 -22.695,9.399 v 0 h -32.091 z m 5.411,-18.75 c 0,7.367 5.974,13.355 13.34,13.355 v 0 c 7.367,0 13.34,-5.988 13.34,-13.355 v 0 c 0,-7.363 -5.973,-13.339 -13.34,-13.339 v 0 c -7.366,0 -13.34,5.976 -13.34,13.339" /></g></g></g></g><text
   id="text2811"
   style="font-variant:normal;font-weight:300;font-stretch:normal;font-size:57.0727px;font-family:'Raleway Light';-inkscape-font-specification:Raleway-Light;writing-mode:lr-tb;fill:#333333;fill-opacity:1;fill-rule:nonzero;stroke:none;stroke-width:0.745331"
   x="83.858383"
   y="92.042709"><tspan
     id="tspan2809"
     sodipodi:role="line"
     y="92.042709"
     x="83.858383 114.67776 147.95129 159.76535 194.694"
     style="font-style:normal;font-variant:normal;font-weight:normal;font-stretch:normal;font-family:Raleway;-inkscape-font-specification:Raleway;stroke-width:0.745331">ceibo</tspan></text><text
   id="text2815"
   style="font-variant:normal;font-weight:normal;font-stretch:normal;font-size:57.0727px;font-family:Raleway;-inkscape-font-specification:Raleway-Regular;writing-mode:lr-tb;fill:#5129a8;fill-opacity:1;fill-rule:nonzero;stroke:none;stroke-width:0.745331"
   x="228.4812"
   y="92.042709"><tspan
     id="tspan2813"
     sodipodi:role="line"
     y="92.042709"
     x="228.4812 247.02991"
     style="font-style:normal;font-variant:normal;font-weight:600;font-stretch:normal;font-family:Raleway;-inkscape-font-specification:'Raleway Semi-Bold';stroke-width:0.745331">rg</tspan></text></svg>
